<?xml version="1.0" encoding="UTF-8"?>
<svg version="1.1" viewBox="0 0 471.64 396.29" xmlns="http://www.w3.org/2000/svg" xmlns:bx="https://boxy-svg.com" xmlns:cc="http://creativecommons.org/ns#" xmlns:dc="http://purl.org/dc/elements/1.1/" xmlns:rdf="http://www.w3.org/1999/02/22-rdf-syntax-ns#">
 <metadata>
  <rdf:RDF>
   <cc:Work rdf:about="">
    <dc:format>image/svg+xml</dc:format>
    <dc:type rdf:resource="http://purl.org/dc/dcmitype/StillImage"/>
    <dc:title/>
   </cc:Work>
  </rdf:RDF>
 </metadata>
 <style type="text/css">.st0{fill:#009edb;}</style>
 <g>
  <rect x="4.03" y=".5" width="467.04" height="132.91" fill="#003593" stroke="#003593" style="paint-order:fill"/>
  <rect x="3.394" y="132.4" width="467.04" height="132.91" fill="#fff" stroke="#fff" style="paint-order:fill"/>
  <rect x=".5" y="262.88" width="470.64" height="132.91" fill="#de0000" stroke="#de0000" style="paint-order:fill"/>
 </g>
 <g fill="#ffd901" stroke="#ffd901">
  <path d="m112.15 139.47 14.57 41.915 44.366 0.905-35.362 26.809 12.85 42.474-36.424-25.346-36.424 25.346 12.85-42.474-35.362-26.809 44.366-0.905z" bx:shape="star 108.059 200.548 61.969 61.969 0.4 5 1@f127aa3d"/>
  <path d="m240.17 138.99 14.57 41.915 44.366 0.905-35.362 26.809 12.85 42.474-36.424-25.346-36.424 25.346 12.85-42.474-35.362-26.809 44.366-0.905z" bx:shape="star 236.083 200.067 61.969 61.969 0.4 5 1@6adcad7e"/>
  <path d="m370.42 138.99 14.57 41.915 44.366 0.905-35.362 26.809 12.85 42.474-36.424-25.346-36.424 25.346 12.85-42.474-35.362-26.809 44.366-0.905z" bx:shape="star 366.331 200.067 61.969 61.969 0.4 5 1@9f6726d7"/>
 </g>
</svg>
