<?xml version="1.0" encoding="utf-8"?>
<svg version="1.1" id="svg2" x="0px" y="0px" viewBox="0 0 466.2 395.8" style="enable-background:new 0 0 466.2 395.8;" xmlns="http://www.w3.org/2000/svg">
  <style type="text/css">
	.st0{fill:#009edb;}
</style>
  <g id="g3320" transform="matrix(1, 0, 0, 1, 1.889225, -2.189194)">
    <g>
      <g>
        <g>
          <g>
            <path class="st0" d="M35.8,244l1.2,1c-1.3-9-2-18.8,0.6-27.4c3.9-13.8,8.8-27.2,11.3-41.5c2-11.1,4.3-23.6,3-34.3 c-1.5,5.8-3,11.5-6.2,16.5c-12.1,18.7-24.5,40.7-16,64.5c-0.2,0.3-0.5,0.6-0.8,0.4c-3.4-7.9-4.2-16.8-6.4-25.2 c-5.9-22.3-23-41-18-66.8c-2.7,5.6-3.7,11.9-5.1,18c-3,15.8,0,32.5,4.3,47.1C9,214.4,26.7,227.4,35.8,244z" style="fill: rgb(9, 36, 57);"/>
            <path class="st0" d="M31.2,128.2c4-8.2,10.5-16,18.3-21.8c17.2-13,36-29.8,36.3-51.8C80,70.4,62.7,77,51.2,87.8 c-6.1,5.7-10.8,12.6-13.5,19.8l-0.4-0.3c1.4-6.4,4.1-12.1,6-18.3c5-16.8,4.1-36.9,20.5-48.2C55.4,43,48.3,48.4,42,55.4l0,0 C28.7,70.1,29.9,91.8,31.6,111C32.2,117,31.9,122.1,31.2,128.2z" style="fill: rgb(9, 36, 57);"/>
            <path class="st0" d="M51.2,80.3c9.2-8.6,19.8-15,27.6-25.2c9.3-12.3,17.4-26.1,29.6-36.7c-16.5,6.4-34.3,13-45,30 C57.1,58.3,56.1,70,51.2,80.3z" style="fill: rgb(9, 36, 57);"/>
            <path class="st0" d="M58.1,123.8c4-8.1,6.5-17.3,7.6-26.2c-1.5,3.8-3.8,7.3-7,10.3C45.3,120.6,29.6,133,26.6,151 c-0.4,2.6-0.7,5.2-1.4,7.7c-0.6,0.3-0.6-0.4-0.8-0.6l1.7-22.2c1.6-21.7-9.8-45.8,2.7-64.9c-0.4-0.1-0.7,0.3-1,0.4 c-11.4,14.5-19,30.5-19,50c0,24.1,13.9,41,15.6,63.6C28,161.4,47.8,144.6,58.1,123.8z" style="fill: rgb(9, 36, 57);"/>
            <path class="st0" d="M31.6,271.9C44.5,282.1,59.9,290,71.7,299c-2.3-5.9-6.1-11.3-7.6-17.4c-6.9-27.9-3.1-60.3-15-86.1 c2.2,14.7-3.6,27.7-4.9,41.7c-1.1,11.5,0.9,22.7,5.4,32.3c1.3,2.9,3.7,5.4,4.4,8.4c-4.3-3.9-7.4-8.8-10.3-13.6 c-13.9-22.5-43-37.1-45-64.5l0,0c-1,12.2,0.1,25.1,4.1,35.9C8.3,250.5,19.1,262,31.6,271.9z" style="fill: rgb(9, 36, 57);"/>
            <path class="st0" d="M207,345.8c-22.5,0-42.7,10.9-62.4,19.1c-17.9,7.4-41.6,6-57.5-5c7.8,9.8,18.3,15.9,29.2,20 c20.1,8,43.6,1.9,60.8-9.1c12.3-7.9,22.9-19.1,37.6-19.1c23.7,0,48.6,24.3,69.9,46.3c3.3-2.7,6.8-5.5,9.5-8.6 C271.8,368.2,240.3,345.8,207,345.8z" style="fill: rgb(9, 36, 57);"/>
            <path class="st0" d="M166.8,348.2c3.5-0.9,7.7-0.6,10.9-1.8c-13.4-2.7-26.3-6.8-36.7-16.3c-14.9-13.6-28.1-28.1-44-38.7 c12.5,16.8,16,41.2,38.8,49.7c4,1.5,8.7,1.8,12.2,4c-4.4,0.7-8.2-0.7-12.3-1.6c-29.4-6.3-65.2,1.8-87.2-23.2 c8.3,16.4,25.5,29.3,42.1,34.7C116.1,363.6,142.8,354.1,166.8,348.2z" style="fill: rgb(9, 36, 57);"/>
            <path class="st0" d="M117.6,335.9c-19.1-15.4-22-38.5-30.5-58.7c-5.3-12.6-13.9-23.9-23.1-34.9c10.1,20.2,5.7,46.2,18.8,65.2 c4.1,6,9.8,11.7,15.1,16.4l-0.2,0.3c-4.8-2.2-9.1-5.6-13.5-9.2c-22.9-19.1-57.4-21.5-71.1-52.6l0,0c3.7,22.8,21.8,43,41.4,55.8 C73.1,330.4,97,329.1,117.6,335.9z" style="fill: rgb(9, 36, 57);"/>
          </g>
          <g>
            <path class="st0" d="M383.7,55.1c7.8,10.3,18.4,16.6,27.6,25.2c-4.9-10.3-5.9-22-12.1-31.9c-10.7-17-28.5-23.6-45-30 C366.2,29,374.3,42.7,383.7,55.1z" style="fill: rgb(9, 36, 57);"/>
            <path class="st0" d="M419.2,89c1.8,6.1,4.5,11.9,6,18.3l-0.4,0.3c-2.7-7.2-7.4-14.1-13.5-19.8c-11.5-10.9-28.8-17.4-34.5-33.3 c0.3,22.1,19.1,38.9,36.3,51.8c7.7,5.8,14.3,13.6,18.3,21.8c-0.7-6.1-1-11.2-0.4-17.1c1.8-19.3,2.9-40.9-10.3-55.6l0,0 c-6.3-7-13.4-12.5-21.8-14.6C415.1,52.1,414.2,72.2,419.2,89z" style="fill: rgb(9, 36, 57);"/>
            <path class="st0" d="M436.4,135.8l1.7,22.2c-0.2,0.2-0.2,0.8-0.8,0.6c-0.7-2.5-1-5.1-1.4-7.7c-3-17.9-18.8-30.4-32.1-43.1 c-3.2-3-5.5-6.5-7-10.3c1.1,8.9,3.6,18.1,7.6,26.2c10.3,20.8,30.1,37.6,33.7,61.3c1.7-22.7,15.6-39.5,15.6-63.6 c0-19.5-7.6-35.5-19-50c-0.3-0.2-0.6-0.5-1-0.4C446.2,90.1,434.7,114.2,436.4,135.8z" style="fill: rgb(9, 36, 57);"/>
            <path class="st0" d="M440,197.9c-2.2,8.4-3,17.4-6.4,25.2c-0.3,0.2-0.6-0.2-0.8-0.4c8.5-23.8-3.9-45.7-16-64.5 c-3.2-4.9-4.7-10.7-6.2-16.5c-1.3,10.8,1,23.2,3,34.3c2.6,14.3,7.4,27.7,11.3,41.5c2.6,8.6,1.9,18.3,0.6,27.4l1.2-1 c9-16.6,26.8-29.6,32.2-47.8c4.3-14.5,7.3-31.3,4.3-47.1l0,0c-1.4-6.1-2.5-12.4-5.1-18C463,156.9,445.9,175.6,440,197.9z" style="fill: rgb(9, 36, 57);"/>
            <path class="st0" d="M317.8,364.9c-19.8-8.2-39.9-19.1-62.4-19.1c-33.2,0-64.8,22.5-86.9,43.6c2.7,3.1,6.2,6,9.5,8.6 c21.2-21.9,46.2-46.3,69.9-46.3c14.7,0,25.3,11.2,37.6,19.1c17.1,10.9,40.6,17.1,60.8,9.1c10.8-4.1,21.3-10.2,29.2-20 C359.5,370.8,335.7,372.3,317.8,364.9z" style="fill: rgb(9, 36, 57);"/>
            <path class="st0" d="M463.9,199.6L463.9,199.6L463.9,199.6z" style="fill: rgb(9, 36, 57);"/>
            <path class="st0" d="M418.9,264.1c-3,4.8-6,9.8-10.3,13.6c0.7-2.9,3.1-5.5,4.4-8.4c4.5-9.7,6.5-20.8,5.4-32.3 c-1.4-14-7.2-27-4.9-41.7c-12,25.8-8.1,58.2-15,86.1c-1.5,6.2-5.3,11.6-7.6,17.4c11.8-9,27.2-16.9,40.1-27.1 c12.5-9.8,23.3-21.4,29-36.4c4.1-10.8,5.1-23.7,4.1-35.9C462,227,432.8,241.6,418.9,264.1z" style="fill: rgb(9, 36, 57);"/>
            <path class="st0" d="M378.1,315c-4.4,3.6-8.7,7-13.5,9.2l-0.2-0.3c5.3-4.8,11-10.5,15.1-16.4c13.1-19,8.7-45.1,18.8-65.2 c-9.2,11-17.8,22.3-23.1,34.9c-8.5,20.2-11.4,43.3-30.5,58.7c20.6-6.8,44.5-5.5,63-17.6c19.5-12.8,37.6-33,41.4-55.8 C435.5,293.5,401.1,295.9,378.1,315z" style="fill: rgb(9, 36, 57);"/>
            <path class="st0" d="M449.2,262.4L449.2,262.4L449.2,262.4z" style="fill: rgb(9, 36, 57);"/>
            <path class="st0" d="M326.8,343.6c-4.1,0.9-7.9,2.2-12.3,1.6c3.5-2.2,8.1-2.5,12.2-4c22.8-8.6,26.3-33,38.8-49.7 c-15.9,10.6-29.1,25.1-44,38.7c-10.4,9.5-23.3,13.5-36.7,16.3c3.2,1.2,7.4,0.9,10.9,1.8c24.1,6,50.7,15.4,76.3,6.9 c16.5-5.5,33.7-18.4,42.1-34.7C392,345.4,356.1,337.4,326.8,343.6z" style="fill: rgb(9, 36, 57);"/>
          </g>
        </g>
        <g/>
      </g>
    </g>
  </g>
  <ellipse style="display:inline;fill:#ffffff;fill-opacity:1;stroke-width:1.17709" id="path6808" cx="228.425" cy="169.749" rx="153.665" ry="157.575"/>
  <path style="display:inline;fill:#ffffff;fill-opacity:1;stroke-width:0.832654" d="M 217.493 339.663 C 210.884 335.726 202.68 330.896 199.262 328.929 L 193.047 325.353 L 179.374 326.011 C 171.854 326.373 162.105 326.885 157.71 327.149 L 149.719 327.63 L 138.313 309.157 C 132.039 298.998 126.126 290.189 125.173 289.583 C 124.219 288.977 115.197 284.632 105.122 279.927 L 86.806 271.372 L 85.287 249.512 L 83.768 227.652 L 72.509 212.592 C 66.317 204.309 60.419 196.343 59.403 194.89 L 57.556 192.247 L 60.726 184.432 C 62.47 180.133 66.255 171.074 69.137 164.302 L 74.377 151.988 L 71.35 132.509 C 69.686 121.795 68.232 111.833 68.121 110.37 C 67.929 107.848 68.78 107.01 84.485 94.258 L 101.051 80.805 L 108.102 59.707 L 115.153 38.609 L 136.455 34.327 L 157.757 30.045 L 171.975 16.065 C 179.795 8.376 187.068 1.506 188.137 0.799 C 189.957 -0.405 191.348 -0.108 209.901 5.444 C 220.802 8.706 230.285 11.375 230.975 11.375 C 231.665 11.375 241.047 8.74 251.824 5.519 C 262.601 2.298 271.81 -0.338 272.288 -0.338 C 272.767 -0.338 280.043 6.345 288.457 14.513 C 296.872 22.681 304.391 29.632 305.166 29.959 C 305.941 30.287 315.338 32.295 326.048 34.421 C 336.759 36.547 346.001 38.752 346.586 39.321 C 347.171 39.891 350.557 49.352 354.111 60.346 L 360.573 80.336 L 377.079 93.782 C 389.833 104.172 393.641 107.716 393.834 109.373 C 393.972 110.552 392.581 120.552 390.744 131.594 L 387.405 151.671 L 396.095 171.914 L 404.786 192.157 L 392.059 209.136 C 385.06 218.474 379.107 227.025 378.832 228.138 C 378.556 229.251 377.551 239.372 376.598 250.628 C 375.644 261.885 374.737 271.223 374.582 271.38 C 374.426 271.537 365.59 275.79 354.945 280.83 L 335.592 289.995 L 324.302 308.186 L 313.013 326.378 L 294.878 326.212 C 284.903 326.121 275.064 325.842 273.014 325.591 C 269.427 325.152 268.574 325.55 250.677 336.006 C 240.443 341.984 231.493 346.863 230.789 346.848 C 230.085 346.832 224.101 343.599 217.493 339.663 L 217.493 339.663 Z M 239.1 296.551 L 246.606 292.242 L 251.954 294.459 L 257.302 296.676 L 285.33 296.676 C 310.913 296.676 313.766 296.535 318.032 295.053 C 330.446 290.741 338.913 279.975 340.975 265.883 C 341.425 262.802 342.04 248.506 342.341 234.113 L 342.888 207.945 L 350.693 197.591 L 358.497 187.237 L 352.167 172.496 L 345.836 157.755 L 348.407 141.721 L 350.978 125.686 L 347.421 122.531 C 345.465 120.796 343.585 119.36 343.243 119.34 C 342.901 119.321 342.621 116.347 342.621 112.733 C 342.621 101.071 341.008 85.391 339.288 80.344 C 334.981 67.706 326.185 59.731 314.054 57.466 C 311.368 56.965 300.93 56.555 290.859 56.555 L 272.547 56.555 L 267.627 51.535 C 264.769 48.619 261.989 46.515 260.993 46.515 C 260.051 46.515 253.017 48.383 245.363 50.666 L 231.447 54.816 L 215.976 50.317 L 200.505 45.818 L 195.098 51.186 L 189.691 56.555 L 156.045 56.555 C 125.749 56.555 122.286 56.693 121.262 57.94 C 119.611 59.95 119.611 93.324 121.262 95.332 C 122.178 96.446 123.98 96.715 130.534 96.715 L 138.669 96.715 L 137.419 100.42 C 136.034 104.523 133.365 107.246 119.622 118.58 L 110.862 125.803 L 113.599 141.51 L 116.335 157.216 L 110.119 171.878 C 106.7 179.942 104.079 187.003 104.295 187.571 C 104.511 188.138 108.763 194.045 113.746 200.698 L 122.805 212.794 L 123.768 224.824 C 124.297 231.441 124.953 238.789 125.224 241.152 L 125.717 245.45 L 139.908 252.141 L 154.1 258.832 L 154.514 276.708 C 154.742 286.54 155.23 295.055 155.599 295.631 C 156.098 296.41 160.472 296.676 172.735 296.676 C 191.953 296.676 191.804 296.733 191.804 289.398 L 191.804 284.748 L 198.226 285.156 C 204.589 285.56 204.763 285.633 217.079 293.137 C 223.915 297.303 229.978 300.744 230.551 300.785 C 231.124 300.826 234.971 298.921 239.1 296.551 L 239.1 296.551 Z" id="path6697"/>
  <path style="display:inline;fill:#092439;fill-opacity:1;stroke-width:0.78201" d="M 212.398 326.428 L 195.194 316.232 L 185.419 316.682 C 180.042 316.93 170.701 317.363 164.66 317.645 L 153.677 318.157 L 142.745 300.661 L 131.812 283.166 L 113.063 274.363 L 94.314 265.56 L 92.75 244.932 L 91.186 224.305 L 79.065 208.397 C 72.399 199.647 66.811 192.164 66.649 191.767 C 66.486 191.37 69.991 182.61 74.437 172.301 L 82.521 153.557 L 79.174 133.32 C 77.333 122.189 75.998 112.812 76.207 112.481 C 76.416 112.151 83.594 106.273 92.158 99.419 L 107.728 86.958 L 114.223 67.357 C 117.795 56.576 120.779 47.678 120.852 47.583 C 120.926 47.489 130.117 45.614 141.277 43.417 L 161.567 39.423 L 176.214 24.959 C 187.051 14.257 191.221 10.608 192.245 10.93 C 193.007 11.17 201.945 13.833 212.108 16.849 L 230.585 22.332 L 250.406 16.467 L 270.227 10.601 L 277.285 17.447 C 281.167 21.211 287.862 27.697 292.163 31.858 L 299.983 39.425 L 319.763 43.37 C 330.642 45.539 339.81 47.479 340.136 47.681 C 340.462 47.883 343.526 56.714 346.944 67.306 L 353.16 86.564 L 368.8 99.15 C 377.402 106.073 384.692 111.951 385 112.212 C 385.308 112.473 383.987 121.844 382.065 133.037 L 378.571 153.387 L 386.808 172.388 L 395.044 191.389 L 384.659 205.043 C 378.947 212.552 373.318 220 372.149 221.593 C 370.087 224.405 369.979 225.08 368.501 244.594 C 367.663 255.651 366.798 264.988 366.579 265.342 C 366.361 265.696 357.938 269.809 347.862 274.482 L 329.542 282.977 L 319.064 299.764 C 313.3 308.996 308.364 316.902 308.095 317.331 C 307.769 317.849 300.661 317.79 286.962 317.156 L 266.32 316.2 L 248.852 326.454 C 239.244 332.094 230.983 336.689 230.493 336.666 C 230.003 336.643 221.86 332.036 212.398 326.428 L 212.398 326.428 Z M 237.993 288.638 L 245.3 284.361 L 250.354 286.488 L 255.408 288.615 L 280.306 288.86 C 296.197 289.017 306.634 288.799 309.159 288.257 C 318.239 286.31 326.1 280.374 330.164 272.396 C 334.436 264.009 334.902 260.443 335.451 231.919 L 335.955 205.722 L 343.253 196.222 L 350.55 186.723 L 344.558 172.905 L 338.567 159.087 L 340.976 144.728 C 342.301 136.83 343.385 130.073 343.385 129.711 C 343.385 129.35 341.677 127.701 339.589 126.047 L 335.794 123.041 L 335.317 109.25 C 335.039 101.196 334.343 93.418 333.644 90.556 C 331.257 80.774 325.783 72.985 318.518 69.031 C 311.756 65.351 306.399 64.593 287.055 64.58 L 269.436 64.569 L 264.793 59.877 C 262.239 57.296 259.745 55.185 259.25 55.185 C 258.756 55.185 252.235 57.002 244.759 59.222 L 231.166 63.26 L 225.301 61.679 C 222.075 60.809 215.489 58.925 210.665 57.492 L 201.894 54.886 L 196.852 59.727 L 191.81 64.569 L 160.127 64.569 C 132.367 64.569 128.291 64.721 127.215 65.798 C 126.177 66.835 125.986 69.534 125.986 83.136 C 125.986 103.079 125.461 102.105 136.201 102.105 L 143.828 102.105 L 142.541 106.129 C 141.336 109.9 140.511 110.759 129.446 119.761 L 117.638 129.368 L 120.188 144.084 L 122.739 158.801 L 116.933 172.224 C 113.74 179.606 111.128 186.019 111.128 186.474 C 111.128 186.929 115.136 192.534 120.035 198.929 L 128.942 210.557 L 130.069 225.69 C 130.689 234.014 131.519 240.941 131.914 241.085 C 132.31 241.228 138.439 244.078 145.536 247.418 L 158.439 253.491 L 158.651 270.21 C 158.786 280.934 159.171 287.301 159.724 287.967 C 160.387 288.767 164.158 289.006 176.103 289.006 C 193.829 289.006 193.239 289.246 193.239 282.019 L 193.239 278.057 L 199.299 278.073 L 205.36 278.089 L 217.872 285.471 C 224.754 289.531 230.452 292.867 230.536 292.884 C 230.619 292.902 233.975 290.991 237.993 288.638 L 237.993 288.638 Z" id="path697"/>
  <path style="display:inline;fill:#092439;fill-opacity:1;stroke-width:0.78201" d="M 165.477 189.299 L 165.477 95.849 L 149.055 95.849 L 132.633 95.849 L 132.633 83.337 L 132.633 70.825 L 176.034 70.825 L 219.436 70.825 L 219.436 83.337 L 219.436 95.849 L 203.014 95.849 L 186.592 95.849 L 186.592 189.299 L 186.592 282.749 L 176.034 282.749 L 165.477 282.749 L 165.477 189.299 Z" id="path2841"/>
  <path style="display:inline;fill:#092439;fill-opacity:1;stroke-width:0.78201" d="M 257.862 281.937 C 249.778 280.278 242.392 273.749 239.53 265.732 C 236.758 257.971 236.556 251.053 236.802 172.486 L 237.043 95.458 L 238.778 90.342 C 242.053 80.685 246.555 75.813 255.082 72.7 C 258.32 71.518 262.181 71.248 279.526 70.993 C 307.734 70.577 313.631 71.808 320.828 79.616 C 327.096 86.416 328.878 94.792 328.902 117.55 L 328.917 132.604 L 318.751 132.604 L 308.585 132.604 L 308.566 121.851 C 308.544 109.606 307.763 105.18 304.976 101.527 C 301.178 96.547 298.545 95.849 283.567 95.849 C 266.531 95.849 263.253 96.992 260.007 104.06 C 258.648 107.021 258.571 110.906 258.571 176.787 C 258.571 242.641 258.648 246.556 260.006 249.546 C 263.359 256.927 269.019 258.835 286.237 258.389 C 296.552 258.122 297.475 257.97 300.885 255.971 C 303.509 254.433 305.037 252.797 306.359 250.112 C 308.149 246.477 308.2 245.779 308.439 221.557 L 308.684 196.728 L 300.033 196.728 L 291.381 196.728 L 291.381 184.607 L 291.381 172.486 L 310.149 172.486 L 328.917 172.486 L 328.89 212.564 C 328.861 255.498 328.492 260.706 324.942 268.249 C 322.539 273.357 318.054 277.736 312.611 280.288 L 308.194 282.358 L 284.734 282.498 C 271.831 282.575 259.738 282.323 257.862 281.937 L 257.862 281.937 Z" id="path2843"/>
</svg>